<svg width="278" height="60" viewBox="0 0 278 60" fill="none" xmlns="http://www.w3.org/2000/svg">
<g clip-path="url(#clip0_9256_939)">
<path d="M31.8903 9.00216V17.661H8.8016V23.432H31.8903V32.0909H8.8016V49.4063H0.142792V9.00216H31.8903Z" fill="white"/>
<path d="M71.3104 9.00253V17.6613H48.2217V23.4324H68.4249V32.0912H48.2217V40.75H71.3104V49.4088H39.5629V9.00253H71.3104Z" fill="white"/>
<path d="M113.615 23.4324C113.615 31.8601 109.921 36.5923 102.532 37.6312L114.308 49.4066H102.07L87.6404 34.9768V49.4066H78.9816V9.00253H99.1847C108.805 9.00253 113.615 13.8118 113.615 23.4324ZM99.1847 29.2035C103.032 29.2035 104.956 27.2798 104.956 23.4324C104.956 19.585 103.032 17.6613 99.1847 17.6613H87.6404V29.2057H99.1847V29.2035Z" fill="white"/>
<path d="M138.605 37.1073L149.196 9.00253H158.663L138.605 58.4066L118.547 9.00253H128.014L138.605 37.1073Z" fill="white"/>
<path d="M195.345 9.00253V17.6613H172.256V23.4324H192.46V32.0912H172.256V40.75H195.345V49.4088H163.598V9.00253H195.345Z" fill="white"/>
<path d="M211.675 26.5201V49.4063H203.016V0L228.99 31.8884V9.00217H237.649V58.4062L211.675 26.5201Z" fill="#D81E39"/>
<path d="M277.068 9.00253V17.6613H265.524V49.4088H256.865V17.6613H245.321V9.00253H277.068Z" fill="white"/>
</g>
<defs>
<clipPath id="clip0_9256_939">
<rect width="277.714" height="60" fill="white" transform="translate(0.142822)"/>
</clipPath>
</defs>
</svg>
